{"title":"My.Roommates.A.Lesbian.2.XXX.DVDRip.XviD-STARLETS","uid":7861736,"size":1463930880,"categoryP":"porn","categoryS":"movies","magnet":"?xt=urn:btih:f5f38b27762f80aabb828463a1d2e8c28e30089a&amp;dn=My.Roommates.A.Lesbian.2.XXX.DVDRip.XviD-STARLETS&amp;tr=udp%3A%2F%2Ftracker.openbittorrent.com%3A80&amp;tr=udp%3A%2F%2Fopen.demonii.com%3A1337&amp;tr=udp%3A%2F%2Ftracker.coppersurfer.tk%3A6969&amp;tr=udp%3A%2F%2Fexodus.desync.com%3A6969","seeders":0,"leechers":2,"uploader":"R0thschild","files":3,"time":1353948979,"description":"Gallery: \n &lt;a href=&quot;\nhttp://imagedomino.com/?g=893953&quot; rel=&quot;nofollow&quot; target=&quot;_NEW&quot;&gt;\nhttp://imagedomino.com/?g=893953&lt;/a&gt;\n\nStudio\nZero Tolerance\nStarring\nAnnMarie Rios, Charley Chase, Sophia Santi, Monique Alexander, Victoria Lawson, Dana DeArmond, Zoe Voss, Jessie Andrews, Adriana Sephora\nGenre\nLesbian, Masturbation\n\nWhat happens when two super-hot roommates discover they both like to eat pussy? You'll find out in this second round of girl-on-girl action where every sexy slut gets sucked, licked, fingered and toy-fucked until she cums all over her live-in lover! Hot lesbian XXX sex is always just down the hall in this tribute to horny housemates who love to fuck! It's not just the laundry that's dirty here, it's every muff-diving, tit-squeezing lesbo whore! They'll bring out the bisexual in any roommate and show them how to get off without a cock in sight!\n\nDuration                         : 1h 0mn\nBit rate                         : 1 496 Kbps\nWidth                            : 624 pixels\nHeight                           : 352 pixels\nDisplay aspect ratio             : 16:9\nFrame rate                       : 23.976 fps\nColor space                      : YUV\nChroma subsampling               : 4:2:0\nBit depth                        : 8 bits\nScan type                        : Progressive\nCompression mode                 : Lossy\nBits/(Pixel*Frame)               : 0.284\nStream size                      : 646 MiB (93%)\n\nDuration                         : 58mn 2s\nBit rate                         : 1 561 Kbps\nWidth                            : 624 pixels\nHeight                           : 352 pixels\nDisplay aspect ratio             : 16:9\nFrame rate                       : 23.976 fps\nColor space                      : YUV\nChroma subsampling               : 4:2:0\nBit depth                        : 8 bits\nScan type                        : Progressive\nCompression mode                 : Lossy\nBits/(Pixel*Frame)               : 0.296\nStream size                      : 648 MiB (93%)","torrent":{"xt":"urn:btih:f5f38b27762f80aabb828463a1d2e8c28e30089a","amp;dn":"My.Roommates.A.Lesbian.2.XXX.DVDRip.XviD-STARLETS","amp;tr":["udp%3A%2F%2Ftracker.openbittorrent.com%3A80","udp%3A%2F%2Fopen.demonii.com%3A1337","udp%3A%2F%2Ftracker.coppersurfer.tk%3A6969","udp%3A%2F%2Fexodus.desync.com%3A6969"],"infoHash":"f5f38b27762f80aabb828463a1d2e8c28e30089a","infoHashBuffer":{"type":"Buffer","data":[245,243,139,39,118,47,128,170,187,130,132,99,161,210,232,194,142,48,8,154]},"announce":[],"urlList":[]}}